<?xml version="1.0" standalone="no"?>
<!DOCTYPE svg PUBLIC "-//W3C//DTD SVG 20010904//EN"
 "http://www.w3.org/TR/2001/REC-SVG-20010904/DTD/svg10.dtd">
<svg version="1.0" xmlns="http://www.w3.org/2000/svg"
 width="260.000000pt" height="260.000000pt" viewBox="0 0 260.000000 260.000000"
 preserveAspectRatio="xMidYMid meet">
<metadata>
Created by potrace 1.14, written by Peter Selinger 2001-2017
</metadata>
<g transform="translate(0.000000,260.000000) scale(0.100000,-0.100000)"
fill="#000000" stroke="none">
<path d="M794 2223 c-24 -26 -24 -28 -24 -249 l0 -224 30 0 30 0 0 213 c0 152
3 216 12 225 19 19 66 15 78 -7 6 -12 10 -103 10 -225 l0 -206 30 0 30 0 0
213 c0 230 2 237 52 237 21 0 31 -6 38 -26 6 -14 10 -115 10 -225 l0 -200 28
3 27 3 0 223 0 224 -27 23 c-25 22 -35 23 -164 23 -134 1 -137 0 -160 -25z"/>
<path d="M1216 2219 l-26 -31 0 -219 0 -219 30 0 30 0 0 115 0 115 80 0 80 0
0 -115 0 -115 30 0 30 0 0 225 0 226 -25 24 c-22 23 -32 25 -114 25 -87 0 -90
-1 -115 -31z m182 -31 c7 -7 12 -42 12 -85 l0 -73 -80 0 -80 0 0 66 c0 93 8
104 78 104 32 0 63 -5 70 -12z"/>
<path d="M1545 2226 c-23 -23 -25 -33 -25 -108 0 -110 12 -132 70 -136 65 -5
80 -23 80 -97 0 -39 -5 -67 -13 -73 -7 -6 -37 -12 -67 -14 -47 -3 -55 -6 -55
-23 0 -18 8 -20 76 -23 73 -3 78 -1 98 24 17 22 21 40 21 109 0 105 -19 135
-84 135 -23 0 -47 5 -54 12 -17 17 -16 142 1 156 7 6 37 12 67 14 47 3 55 6
55 23 0 18 -8 20 -73 23 -66 3 -74 1 -97 -22z"/>
<path d="M1780 2000 l0 -250 30 0 30 0 0 250 0 250 -30 0 -30 0 0 -250z"/>
<path d="M1192 1612 c-84 -36 -150 -96 -192 -173 -33 -61 -35 -69 -35 -164 0
-90 3 -106 29 -159 37 -76 96 -135 172 -172 52 -26 69 -29 154 -29 85 0 101 3
150 28 76 39 143 108 177 181 24 53 28 73 27 151 0 77 -4 98 -28 148 -36 74
-107 146 -177 176 -30 13 -62 27 -71 32 -36 18 -141 9 -206 -19z m218 -32
c126 -35 230 -177 230 -311 0 -82 -40 -168 -107 -230 -86 -81 -203 -108 -309
-72 -179 60 -268 244 -202 420 26 72 112 160 178 185 51 19 157 23 210 8z"/>
<path d="M1244 1545 c-57 -17 -104 -46 -104 -65 0 -15 148 -170 163 -170 4 0
7 51 7 114 0 132 -4 140 -66 121z"/>
<path d="M1330 1431 c0 -66 2 -121 4 -121 6 0 161 160 164 170 6 16 -73 60
-121 66 l-47 7 0 -122z"/>
<path d="M1071 1410 c-12 -22 -23 -59 -24 -82 l-2 -43 118 -3 c64 -1 117 1
117 5 0 15 -155 163 -171 163 -8 0 -25 -18 -38 -40z"/>
<path d="M1437 1372 c-42 -42 -77 -81 -77 -85 0 -4 49 -7 109 -7 130 0 138 5
117 74 -17 56 -42 96 -59 96 -7 0 -47 -35 -90 -78z"/>
<path d="M1044 1246 c-12 -31 41 -156 66 -156 10 0 170 157 170 166 0 2 -52 4
-115 4 -90 0 -117 -3 -121 -14z"/>
<path d="M1360 1253 c0 -17 159 -166 172 -161 19 8 56 86 60 128 l3 35 -117 3
c-65 1 -118 -1 -118 -5z"/>
<path d="M1216 1151 c-53 -53 -77 -84 -73 -95 14 -35 142 -79 158 -55 11 17
12 229 1 229 -4 0 -43 -36 -86 -79z"/>
<path d="M1332 1113 l3 -118 39 2 c42 3 126 47 126 66 0 13 -150 167 -163 167
-4 0 -6 -53 -5 -117z"/>
<path d="M812 803 c-34 -14 -42 -59 -42 -248 0 -173 2 -189 21 -216 19 -28 24
-29 98 -29 107 0 116 10 116 135 0 117 -12 135 -90 135 -58 0 -65 -3 -58 -30
4 -14 16 -20 47 -22 l41 -3 3 -60 c5 -94 -1 -105 -52 -105 -25 0 -48 6 -55 14
-8 9 -11 69 -9 192 l3 179 83 3 82 3 0 29 0 30 -87 -1 c-49 0 -94 -3 -101 -6z"/>
<path d="M1050 561 l0 -251 25 0 25 0 0 219 c0 151 3 220 11 223 6 2 32 1 58
-2 l46 -5 3 -68 c3 -78 -6 -97 -50 -97 -17 0 -31 -6 -35 -16 -7 -18 15 -36 35
-29 7 3 22 0 33 -5 17 -10 19 -22 19 -111 0 -94 1 -100 23 -108 12 -5 25 -7
29 -4 4 2 7 105 7 228 0 280 5 268 -133 273 l-96 4 0 -251z"/>
<path d="M1367 803 c-40 -10 -47 -51 -47 -278 l0 -215 25 0 25 0 0 110 c0 124
0 125 91 118 l44 -3 3 -112 3 -113 29 0 30 0 0 211 c0 280 -5 290 -130 288
-30 -1 -63 -3 -73 -6z m138 -138 l0 -80 -59 -3 c-70 -4 -76 2 -76 76 0 82 10
94 78 90 l57 -3 0 -80z"/>
<path d="M1610 692 c0 -144 4 -149 100 -154 l65 -3 0 -85 0 -85 -80 -5 c-74
-5 -80 -7 -83 -27 -3 -23 -1 -23 96 -23 138 0 132 -13 132 275 l0 226 -27 -3
-28 -3 -3 -107 -3 -108 -54 0 c-64 0 -64 -1 -67 130 -3 80 -4 85 -25 88 -23 3
-23 2 -23 -116z"/>
</g>
</svg>
